<?xml version="1.0" encoding="utf-8" standalone="no"?>
<!DOCTYPE svg PUBLIC "-//W3C//DTD SVG 1.1//EN"
  "http://www.w3.org/Graphics/SVG/1.1/DTD/svg11.dtd">
<svg xmlns:xlink="http://www.w3.org/1999/xlink" width="800.39952pt" height="325.19952pt" viewBox="0 0 800.39952 325.19952" xmlns="http://www.w3.org/2000/svg" version="1.1">
 <metadata>
  <rdf:RDF xmlns:dc="http://purl.org/dc/elements/1.1/" xmlns:cc="http://creativecommons.org/ns#" xmlns:rdf="http://www.w3.org/1999/02/22-rdf-syntax-ns#">
   <cc:Work>
    <dc:type rdf:resource="http://purl.org/dc/dcmitype/StillImage"/>
    <dc:date>2026-09-12T07:16:28.339291</dc:date>
    <dc:format>image/svg+xml</dc:format>
    <dc:creator>
     <cc:Agent>
      <dc:title>Matplotlib v3.11.1, https://matplotlib.org/</dc:title>
     </cc:Agent>
    </dc:creator>
   </cc:Work>
  </rdf:RDF>
 </metadata>
 <defs>
  <style type="text/css">*{stroke-linejoin: round; stroke-linecap: butt}</style>
 </defs>
 <g id="figure_1">
  <g id="patch_1">
   <path d="M 0 325.19952 
L 800.39952 325.19952 
L 800.39952 0 
L 0 0 
z
" style="fill: #ffffff"/>
  </g>
  <g id="axes_1">
   <g id="patch_2">
    <path d="M 44.103906 286.998739 
L 393.05851 286.998739 
L 393.05851 40.319542 
L 44.103906 40.319542 
z
" style="fill: #ffffff"/>
   </g>
   <g id="matplotlib.axis_1">
    <g id="xtick_1">
     <g id="line2d_1">
      <path d="M 46.747502 286.998739 
L 46.747502 40.319542 
" clip-path="url(#p276adb44e7)" style="fill: none; stroke: #b0b0b0; stroke-opacity: 0.3; stroke-width: 0.8; stroke-linecap: square"/>
     </g>
     <g id="line2d_2">
      <defs>
       <path id="mb7d5ff7bfe" d="M 0 0 
L 0 3.5 
" style="stroke: #000000; stroke-width: 0.8"/>
      </defs>
      <g>
       <use xlink:href="#mb7d5ff7bfe" x="46.747502" y="286.998739" style="stroke: #000000; stroke-width: 0.8"/>
      </g>
     </g>
     <g id="text_1">
      <!-- 0 -->
      <g transform="translate(43.566252 301.596395) scale(0.1 -0.1)">
       <defs>
        <path id="DejaVuSans-13" d="M 2034 4250 
Q 1547 4250 1301 3770 
Q 1056 3291 1056 2328 
Q 1056 1369 1301 889 
Q 1547 409 2034 409 
Q 2525 409 2770 889 
Q 3016 1369 3016 2328 
Q 3016 3291 2770 3770 
Q 2525 4250 2034 4250 
z
M 2034 4750 
Q 2819 4750 3233 4129 
Q 3647 3509 3647 2328 
Q 3647 1150 3233 529 
Q 2819 -91 2034 -91 
Q 1250 -91 836 529 
Q 422 1150 422 2328 
Q 422 3509 836 4129 
Q 1250 4750 2034 4750 
z
" transform="scale(0.015625)"/>
       </defs>
       <use xlink:href="#DejaVuSans-13"/>
      </g>
     </g>
    </g>
    <g id="xtick_2">
     <g id="line2d_3">
      <path d="M 112.837389 286.998739 
L 112.837389 40.319542 
" clip-path="url(#p276adb44e7)" style="fill: none; stroke: #b0b0b0; stroke-opacity: 0.3; stroke-width: 0.8; stroke-linecap: square"/>
     </g>
     <g id="line2d_4">
      <g>
       <use xlink:href="#mb7d5ff7bfe" x="112.837389" y="286.998739" style="stroke: #000000; stroke-width: 0.8"/>
      </g>
     </g>
     <g id="text_2">
      <!-- 5 -->
      <g transform="translate(109.656139 301.596395) scale(0.1 -0.1)">
       <defs>
        <path id="DejaVuSans-18" d="M 691 4666 
L 3169 4666 
L 3169 4134 
L 1269 4134 
L 1269 2991 
Q 1406 3038 1543 3061 
Q 1681 3084 1819 3084 
Q 2600 3084 3056 2656 
Q 3513 2228 3513 1497 
Q 3513 744 3044 326 
Q 2575 -91 1722 -91 
Q 1428 -91 1123 -41 
Q 819 9 494 109 
L 494 744 
Q 775 591 1075 516 
Q 1375 441 1709 441 
Q 2250 441 2565 725 
Q 2881 1009 2881 1497 
Q 2881 1984 2565 2268 
Q 2250 2553 1709 2553 
Q 1456 2553 1204 2497 
Q 953 2441 691 2322 
L 691 4666 
z
" transform="scale(0.015625)"/>
       </defs>
       <use xlink:href="#DejaVuSans-18"/>
      </g>
     </g>
    </g>
    <g id="xtick_3">
     <g id="line2d_5">
      <path d="M 178.927276 286.998739 
L 178.927276 40.319542 
" clip-path="url(#p276adb44e7)" style="fill: none; stroke: #b0b0b0; stroke-opacity: 0.3; stroke-width: 0.8; stroke-linecap: square"/>
     </g>
     <g id="line2d_6">
      <g>
       <use xlink:href="#mb7d5ff7bfe" x="178.927276" y="286.998739" style="stroke: #000000; stroke-width: 0.8"/>
      </g>
     </g>
     <g id="text_3">
      <!-- 10 -->
      <g transform="translate(172.564776 301.596395) scale(0.1 -0.1)">
       <defs>
        <path id="DejaVuSans-14" d="M 794 531 
L 1825 531 
L 1825 4091 
L 703 3866 
L 703 4441 
L 1819 4666 
L 2450 4666 
L 2450 531 
L 3481 531 
L 3481 0 
L 794 0 
L 794 531 
z
" transform="scale(0.015625)"/>
       </defs>
       <use xlink:href="#DejaVuSans-14"/>
       <use xlink:href="#DejaVuSans-13" transform="translate(63.625 0)"/>
      </g>
     </g>
    </g>
    <g id="xtick_4">
     <g id="line2d_7">
      <path d="M 245.017163 286.998739 
L 245.017163 40.319542 
" clip-path="url(#p276adb44e7)" style="fill: none; stroke: #b0b0b0; stroke-opacity: 0.3; stroke-width: 0.8; stroke-linecap: square"/>
     </g>
     <g id="line2d_8">
      <g>
       <use xlink:href="#mb7d5ff7bfe" x="245.017163" y="286.998739" style="stroke: #000000; stroke-width: 0.8"/>
      </g>
     </g>
     <g id="text_4">
      <!-- 15 -->
      <g transform="translate(238.654663 301.596395) scale(0.1 -0.1)">
       <use xlink:href="#DejaVuSans-14"/>
       <use xlink:href="#DejaVuSans-18" transform="translate(63.625 0)"/>
      </g>
     </g>
    </g>
    <g id="xtick_5">
     <g id="line2d_9">
      <path d="M 311.10705 286.998739 
L 311.10705 40.319542 
" clip-path="url(#p276adb44e7)" style="fill: none; stroke: #b0b0b0; stroke-opacity: 0.3; stroke-width: 0.8; stroke-linecap: square"/>
     </g>
     <g id="line2d_10">
      <g>
       <use xlink:href="#mb7d5ff7bfe" x="311.10705" y="286.998739" style="stroke: #000000; stroke-width: 0.8"/>
      </g>
     </g>
     <g id="text_5">
      <!-- 20 -->
      <g transform="translate(304.74455 301.596395) scale(0.1 -0.1)">
       <defs>
        <path id="DejaVuSans-15" d="M 1228 531 
L 3431 531 
L 3431 0 
L 469 0 
L 469 531 
Q 828 903 1448 1529 
Q 2069 2156 2228 2338 
Q 2531 2678 2651 2914 
Q 2772 3150 2772 3378 
Q 2772 3750 2511 3984 
Q 2250 4219 1831 4219 
Q 1534 4219 1204 4116 
Q 875 4013 500 3803 
L 500 4441 
Q 881 4594 1212 4672 
Q 1544 4750 1819 4750 
Q 2544 4750 2975 4387 
Q 3406 4025 3406 3419 
Q 3406 3131 3298 2873 
Q 3191 2616 2906 2266 
Q 2828 2175 2409 1742 
Q 1991 1309 1228 531 
z
" transform="scale(0.015625)"/>
       </defs>
       <use xlink:href="#DejaVuSans-15"/>
       <use xlink:href="#DejaVuSans-13" transform="translate(63.625 0)"/>
      </g>
     </g>
    </g>
    <g id="xtick_6">
     <g id="line2d_11">
      <path d="M 377.196937 286.998739 
L 377.196937 40.319542 
" clip-path="url(#p276adb44e7)" style="fill: none; stroke: #b0b0b0; stroke-opacity: 0.3; stroke-width: 0.8; stroke-linecap: square"/>
     </g>
     <g id="line2d_12">
      <g>
       <use xlink:href="#mb7d5ff7bfe" x="377.196937" y="286.998739" style="stroke: #000000; stroke-width: 0.8"/>
      </g>
     </g>
     <g id="text_6">
      <!-- 25 -->
      <g transform="translate(370.834437 301.596395) scale(0.1 -0.1)">
       <use xlink:href="#DejaVuSans-15"/>
       <use xlink:href="#DejaVuSans-18" transform="translate(63.625 0)"/>
      </g>
     </g>
    </g>
    <g id="text_7">
     <!-- harmonic order h -->
     <g transform="translate(175.463239 315.597176) scale(0.1 -0.1)">
      <defs>
       <path id="DejaVuSans-4b" d="M 3513 2113 
L 3513 0 
L 2938 0 
L 2938 2094 
Q 2938 2591 2744 2837 
Q 2550 3084 2163 3084 
Q 1697 3084 1428 2787 
Q 1159 2491 1159 1978 
L 1159 0 
L 581 0 
L 581 4863 
L 1159 4863 
L 1159 2956 
Q 1366 3272 1645 3428 
Q 1925 3584 2291 3584 
Q 2894 3584 3203 3211 
Q 3513 2838 3513 2113 
z
" transform="scale(0.015625)"/>
       <path id="DejaVuSans-44" d="M 2194 1759 
Q 1497 1759 1228 1600 
Q 959 1441 959 1056 
Q 959 750 1161 570 
Q 1363 391 1709 391 
Q 2188 391 2477 730 
Q 2766 1069 2766 1631 
L 2766 1759 
L 2194 1759 
z
M 3341 1997 
L 3341 0 
L 2766 0 
L 2766 531 
Q 2569 213 2275 61 
Q 1981 -91 1556 -91 
Q 1019 -91 701 211 
Q 384 513 384 1019 
Q 384 1609 779 1909 
Q 1175 2209 1959 2209 
L 2766 2209 
L 2766 2266 
Q 2766 2663 2505 2880 
Q 2244 3097 1772 3097 
Q 1472 3097 1187 3025 
Q 903 2953 641 2809 
L 641 3341 
Q 956 3463 1253 3523 
Q 1550 3584 1831 3584 
Q 2591 3584 2966 3190 
Q 3341 2797 3341 1997 
z
" transform="scale(0.015625)"/>
       <path id="DejaVuSans-55" d="M 2631 2963 
Q 2534 3019 2420 3045 
Q 2306 3072 2169 3072 
Q 1681 3072 1420 2755 
Q 1159 2438 1159 1844 
L 1159 0 
L 581 0 
L 581 3500 
L 1159 3500 
L 1159 2956 
Q 1341 3275 1631 3429 
Q 1922 3584 2338 3584 
Q 2397 3584 2469 3576 
Q 2541 3569 2628 3553 
L 2631 2963 
z
" transform="scale(0.015625)"/>
       <path id="DejaVuSans-50" d="M 3328 2828 
Q 3544 3216 3844 3400 
Q 4144 3584 4550 3584 
Q 5097 3584 5394 3201 
Q 5691 2819 5691 2113 
L 5691 0 
L 5113 0 
L 5113 2094 
Q 5113 2597 4934 2840 
Q 4756 3084 4391 3084 
Q 3944 3084 3684 2787 
Q 3425 2491 3425 1978 
L 3425 0 
L 2847 0 
L 2847 2094 
Q 2847 2600 2669 2842 
Q 2491 3084 2119 3084 
Q 1678 3084 1418 2786 
Q 1159 2488 1159 1978 
L 1159 0 
L 581 0 
L 581 3500 
L 1159 3500 
L 1159 2956 
Q 1356 3278 1631 3431 
Q 1906 3584 2284 3584 
Q 2666 3584 2933 3390 
Q 3200 3197 3328 2828 
z
" transform="scale(0.015625)"/>
       <path id="DejaVuSans-52" d="M 1959 3097 
Q 1497 3097 1228 2736 
Q 959 2375 959 1747 
Q 959 1119 1226 758 
Q 1494 397 1959 397 
Q 2419 397 2687 759 
Q 2956 1122 2956 1747 
Q 2956 2369 2687 2733 
Q 2419 3097 1959 3097 
z
M 1959 3584 
Q 2709 3584 3137 3096 
Q 3566 2609 3566 1747 
Q 3566 888 3137 398 
Q 2709 -91 1959 -91 
Q 1206 -91 779 398 
Q 353 888 353 1747 
Q 353 2609 779 3096 
Q 1206 3584 1959 3584 
z
" transform="scale(0.015625)"/>
       <path id="DejaVuSans-51" d="M 3513 2113 
L 3513 0 
L 2938 0 
L 2938 2094 
Q 2938 2591 2744 2837 
Q 2550 3084 2163 3084 
Q 1697 3084 1428 2787 
Q 1159 2491 1159 1978 
L 1159 0 
L 581 0 
L 581 3500 
L 1159 3500 
L 1159 2956 
Q 1366 3272 1645 3428 
Q 1925 3584 2291 3584 
Q 2894 3584 3203 3211 
Q 3513 2838 3513 2113 
z
" transform="scale(0.015625)"/>
       <path id="DejaVuSans-4c" d="M 603 3500 
L 1178 3500 
L 1178 0 
L 603 0 
L 603 3500 
z
M 603 4863 
L 1178 4863 
L 1178 4134 
L 603 4134 
L 603 4863 
z
" transform="scale(0.015625)"/>
       <path id="DejaVuSans-46" d="M 3122 3366 
L 3122 2828 
Q 2878 2963 2633 3030 
Q 2388 3097 2138 3097 
Q 1578 3097 1268 2742 
Q 959 2388 959 1747 
Q 959 1106 1268 751 
Q 1578 397 2138 397 
Q 2388 397 2633 464 
Q 2878 531 3122 666 
L 3122 134 
Q 2881 22 2623 -34 
Q 2366 -91 2075 -91 
Q 1284 -91 818 406 
Q 353 903 353 1747 
Q 353 2603 823 3093 
Q 1294 3584 2113 3584 
Q 2378 3584 2631 3529 
Q 2884 3475 3122 3366 
z
" transform="scale(0.015625)"/>
       <path id="DejaVuSans-3" transform="scale(0.015625)"/>
       <path id="DejaVuSans-47" d="M 2906 2969 
L 2906 4863 
L 3481 4863 
L 3481 0 
L 2906 0 
L 2906 525 
Q 2725 213 2448 61 
Q 2172 -91 1784 -91 
Q 1150 -91 751 415 
Q 353 922 353 1747 
Q 353 2572 751 3078 
Q 1150 3584 1784 3584 
Q 2172 3584 2448 3432 
Q 2725 3281 2906 2969 
z
M 947 1747 
Q 947 1113 1208 752 
Q 1469 391 1925 391 
Q 2381 391 2643 752 
Q 2906 1113 2906 1747 
Q 2906 2381 2643 2742 
Q 2381 3103 1925 3103 
Q 1469 3103 1208 2742 
Q 947 2381 947 1747 
z
" transform="scale(0.015625)"/>
       <path id="DejaVuSans-48" d="M 3597 1894 
L 3597 1613 
L 953 1613 
Q 991 1019 1311 708 
Q 1631 397 2203 397 
Q 2534 397 2845 478 
Q 3156 559 3463 722 
L 3463 178 
Q 3153 47 2828 -22 
Q 2503 -91 2169 -91 
Q 1331 -91 842 396 
Q 353 884 353 1716 
Q 353 2575 817 3079 
Q 1281 3584 2069 3584 
Q 2775 3584 3186 3129 
Q 3597 2675 3597 1894 
z
M 3022 2063 
Q 3016 2534 2758 2815 
Q 2500 3097 2075 3097 
Q 1594 3097 1305 2825 
Q 1016 2553 972 2059 
L 3022 2063 
z
" transform="scale(0.015625)"/>
      </defs>
      <use xlink:href="#DejaVuSans-4b"/>
      <use xlink:href="#DejaVuSans-44" transform="translate(63.375 0)"/>
      <use xlink:href="#DejaVuSans-55" transform="translate(124.65625 0)"/>
      <use xlink:href="#DejaVuSans-50" transform="translate(164.015625 0)"/>
      <use xlink:href="#DejaVuSans-52" transform="translate(261.421875 0)"/>
      <use xlink:href="#DejaVuSans-51" transform="translate(322.609375 0)"/>
      <use xlink:href="#DejaVuSans-4c" transform="translate(385.984375 0)"/>
      <use xlink:href="#DejaVuSans-46" transform="translate(413.765625 0)"/>
      <use xlink:href="#DejaVuSans-3" transform="translate(468.75 0)"/>
      <use xlink:href="#DejaVuSans-52" transform="translate(500.53125 0)"/>
      <use xlink:href="#DejaVuSans-55" transform="translate(561.71875 0)"/>
      <use xlink:href="#DejaVuSans-47" transform="translate(601.078125 0)"/>
      <use xlink:href="#DejaVuSans-48" transform="translate(664.5625 0)"/>
      <use xlink:href="#DejaVuSans-55" transform="translate(726.09375 0)"/>
      <use xlink:href="#DejaVuSans-3" transform="translate(767.203125 0)"/>
      <use xlink:href="#DejaVuSans-4b" transform="translate(798.984375 0)"/>
     </g>
    </g>
   </g>
   <g id="matplotlib.axis_2">
    <g id="ytick_1">
     <g id="line2d_13">
      <path d="M 44.103906 258.91858 
L 393.05851 258.91858 
" clip-path="url(#p276adb44e7)" style="fill: none; stroke: #b0b0b0; stroke-opacity: 0.3; stroke-width: 0.8; stroke-linecap: square"/>
     </g>
     <g id="line2d_14">
      <defs>
       <path id="me92bf7b824" d="M 0 0 
L -3.5 0 
" style="stroke: #000000; stroke-width: 0.8"/>
      </defs>
      <g>
       <use xlink:href="#me92bf7b824" x="44.103906" y="258.91858" style="stroke: #000000; stroke-width: 0.8"/>
      </g>
     </g>
     <g id="text_8">
      <!-- 0.2 -->
      <g transform="translate(21.200781 262.717408) scale(0.1 -0.1)">
       <defs>
        <path id="DejaVuSans-11" d="M 684 794 
L 1344 794 
L 1344 0 
L 684 0 
L 684 794 
z
" transform="scale(0.015625)"/>
       </defs>
       <use xlink:href="#DejaVuSans-13"/>
       <use xlink:href="#DejaVuSans-11" transform="translate(63.625 0)"/>
       <use xlink:href="#DejaVuSans-15" transform="translate(95.40625 0)"/>
      </g>
     </g>
    </g>
    <g id="ytick_2">
     <g id="line2d_15">
      <path d="M 44.103906 224.879118 
L 393.05851 224.879118 
" clip-path="url(#p276adb44e7)" style="fill: none; stroke: #b0b0b0; stroke-opacity: 0.3; stroke-width: 0.8; stroke-linecap: square"/>
     </g>
     <g id="line2d_16">
      <g>
       <use xlink:href="#me92bf7b824" x="44.103906" y="224.879118" style="stroke: #000000; stroke-width: 0.8"/>
      </g>
     </g>
     <g id="text_9">
      <!-- 0.4 -->
      <g transform="translate(21.200781 228.677946) scale(0.1 -0.1)">
       <defs>
        <path id="DejaVuSans-17" d="M 2419 4116 
L 825 1625 
L 2419 1625 
L 2419 4116 
z
M 2253 4666 
L 3047 4666 
L 3047 1625 
L 3713 1625 
L 3713 1100 
L 3047 1100 
L 3047 0 
L 2419 0 
L 2419 1100 
L 313 1100 
L 313 1709 
L 2253 4666 
z
" transform="scale(0.015625)"/>
       </defs>
       <use xlink:href="#DejaVuSans-13"/>
       <use xlink:href="#DejaVuSans-11" transform="translate(63.625 0)"/>
       <use xlink:href="#DejaVuSans-17" transform="translate(95.40625 0)"/>
      </g>
     </g>
    </g>
    <g id="ytick_3">
     <g id="line2d_17">
      <path d="M 44.103906 190.839656 
L 393.05851 190.839656 
" clip-path="url(#p276adb44e7)" style="fill: none; stroke: #b0b0b0; stroke-opacity: 0.3; stroke-width: 0.8; stroke-linecap: square"/>
     </g>
     <g id="line2d_18">
      <g>
       <use xlink:href="#me92bf7b824" x="44.103906" y="190.839656" style="stroke: #000000; stroke-width: 0.8"/>
      </g>
     </g>
     <g id="text_10">
      <!-- 0.6 -->
      <g transform="translate(21.200781 194.638484) scale(0.1 -0.1)">
       <defs>
        <path id="DejaVuSans-19" d="M 2113 2584 
Q 1688 2584 1439 2293 
Q 1191 2003 1191 1497 
Q 1191 994 1439 701 
Q 1688 409 2113 409 
Q 2538 409 2786 701 
Q 3034 994 3034 1497 
Q 3034 2003 2786 2293 
Q 2538 2584 2113 2584 
z
M 3366 4563 
L 3366 3988 
Q 3128 4100 2886 4159 
Q 2644 4219 2406 4219 
Q 1781 4219 1451 3797 
Q 1122 3375 1075 2522 
Q 1259 2794 1537 2939 
Q 1816 3084 2150 3084 
Q 2853 3084 3261 2657 
Q 3669 2231 3669 1497 
Q 3669 778 3244 343 
Q 2819 -91 2113 -91 
Q 1303 -91 875 529 
Q 447 1150 447 2328 
Q 447 3434 972 4092 
Q 1497 4750 2381 4750 
Q 2619 4750 2861 4703 
Q 3103 4656 3366 4563 
z
" transform="scale(0.015625)"/>
       </defs>
       <use xlink:href="#DejaVuSans-13"/>
       <use xlink:href="#DejaVuSans-11" transform="translate(63.625 0)"/>
       <use xlink:href="#DejaVuSans-19" transform="translate(95.40625 0)"/>
      </g>
     </g>
    </g>
    <g id="ytick_4">
     <g id="line2d_19">
      <path d="M 44.103906 156.800194 
L 393.05851 156.800194 
" clip-path="url(#p276adb44e7)" style="fill: none; stroke: #b0b0b0; stroke-opacity: 0.3; stroke-width: 0.8; stroke-linecap: square"/>
     </g>
     <g id="line2d_20">
      <g>
       <use xlink:href="#me92bf7b824" x="44.103906" y="156.800194" style="stroke: #000000; stroke-width: 0.8"/>
      </g>
     </g>
     <g id="text_11">
      <!-- 0.8 -->
      <g transform="translate(21.200781 160.599022) scale(0.1 -0.1)">
       <defs>
        <path id="DejaVuSans-1b" d="M 2034 2216 
Q 1584 2216 1326 1975 
Q 1069 1734 1069 1313 
Q 1069 891 1326 650 
Q 1584 409 2034 409 
Q 2484 409 2743 651 
Q 3003 894 3003 1313 
Q 3003 1734 2745 1975 
Q 2488 2216 2034 2216 
z
M 1403 2484 
Q 997 2584 770 2862 
Q 544 3141 544 3541 
Q 544 4100 942 4425 
Q 1341 4750 2034 4750 
Q 2731 4750 3128 4425 
Q 3525 4100 3525 3541 
Q 3525 3141 3298 2862 
Q 3072 2584 2669 2484 
Q 3125 2378 3379 2068 
Q 3634 1759 3634 1313 
Q 3634 634 3220 271 
Q 2806 -91 2034 -91 
Q 1263 -91 848 271 
Q 434 634 434 1313 
Q 434 1759 690 2068 
Q 947 2378 1403 2484 
z
M 1172 3481 
Q 1172 3119 1398 2916 
Q 1625 2713 2034 2713 
Q 2441 2713 2670 2916 
Q 2900 3119 2900 3481 
Q 2900 3844 2670 4047 
Q 2441 4250 2034 4250 
Q 1625 4250 1398 4047 
Q 1172 3844 1172 3481 
z
" transform="scale(0.015625)"/>
       </defs>
       <use xlink:href="#DejaVuSans-13"/>
       <use xlink:href="#DejaVuSans-11" transform="translate(63.625 0)"/>
       <use xlink:href="#DejaVuSans-1b" transform="translate(95.40625 0)"/>
      </g>
     </g>
    </g>
    <g id="ytick_5">
     <g id="line2d_21">
      <path d="M 44.103906 122.760732 
L 393.05851 122.760732 
" clip-path="url(#p276adb44e7)" style="fill: none; stroke: #b0b0b0; stroke-opacity: 0.3; stroke-width: 0.8; stroke-linecap: square"/>
     </g>
     <g id="line2d_22">
      <g>
       <use xlink:href="#me92bf7b824" x="44.103906" y="122.760732" style="stroke: #000000; stroke-width: 0.8"/>
      </g>
     </g>
     <g id="text_12">
      <!-- 1.0 -->
      <g transform="translate(21.200781 126.55956) scale(0.1 -0.1)">
       <use xlink:href="#DejaVuSans-14"/>
       <use xlink:href="#DejaVuSans-11" transform="translate(63.625 0)"/>
       <use xlink:href="#DejaVuSans-13" transform="translate(95.40625 0)"/>
      </g>
     </g>
    </g>
    <g id="ytick_6">
     <g id="line2d_23">
      <path d="M 44.103906 88.72127 
L 393.05851 88.72127 
" clip-path="url(#p276adb44e7)" style="fill: none; stroke: #b0b0b0; stroke-opacity: 0.3; stroke-width: 0.8; stroke-linecap: square"/>
     </g>
     <g id="line2d_24">
      <g>
       <use xlink:href="#me92bf7b824" x="44.103906" y="88.72127" style="stroke: #000000; stroke-width: 0.8"/>
      </g>
     </g>
     <g id="text_13">
      <!-- 1.2 -->
      <g transform="translate(21.200781 92.520098) scale(0.1 -0.1)">
       <use xlink:href="#DejaVuSans-14"/>
       <use xlink:href="#DejaVuSans-11" transform="translate(63.625 0)"/>
       <use xlink:href="#DejaVuSans-15" transform="translate(95.40625 0)"/>
      </g>
     </g>
    </g>
    <g id="ytick_7">
     <g id="line2d_25">
      <path d="M 44.103906 54.681808 
L 393.05851 54.681808 
" clip-path="url(#p276adb44e7)" style="fill: none; stroke: #b0b0b0; stroke-opacity: 0.3; stroke-width: 0.8; stroke-linecap: square"/>
     </g>
     <g id="line2d_26">
      <g>
       <use xlink:href="#me92bf7b824" x="44.103906" y="54.681808" style="stroke: #000000; stroke-width: 0.8"/>
      </g>
     </g>
     <g id="text_14">
      <!-- 1.4 -->
      <g transform="translate(21.200781 58.480636) scale(0.1 -0.1)">
       <use xlink:href="#DejaVuSans-14"/>
       <use xlink:href="#DejaVuSans-11" transform="translate(63.625 0)"/>
       <use xlink:href="#DejaVuSans-17" transform="translate(95.40625 0)"/>
      </g>
     </g>
    </g>
    <g id="text_15">
     <!-- R(h) [Ω/km] -->
     <g transform="translate(14.798438 192.965391) rotate(-90) scale(0.1 -0.1)">
      <defs>
       <path id="DejaVuSans-35" d="M 2841 2188 
Q 3044 2119 3236 1894 
Q 3428 1669 3622 1275 
L 4263 0 
L 3584 0 
L 2988 1197 
Q 2756 1666 2539 1819 
Q 2322 1972 1947 1972 
L 1259 1972 
L 1259 0 
L 628 0 
L 628 4666 
L 2053 4666 
Q 2853 4666 3247 4331 
Q 3641 3997 3641 3322 
Q 3641 2881 3436 2590 
Q 3231 2300 2841 2188 
z
M 1259 4147 
L 1259 2491 
L 2053 2491 
Q 2509 2491 2742 2702 
Q 2975 2913 2975 3322 
Q 2975 3731 2742 3939 
Q 2509 4147 2053 4147 
L 1259 4147 
z
" transform="scale(0.015625)"/>
       <path id="DejaVuSans-b" d="M 1984 4856 
Q 1566 4138 1362 3434 
Q 1159 2731 1159 2009 
Q 1159 1288 1364 580 
Q 1569 -128 1984 -844 
L 1484 -844 
Q 1016 -109 783 600 
Q 550 1309 550 2009 
Q 550 2706 781 3412 
Q 1013 4119 1484 4856 
L 1984 4856 
z
" transform="scale(0.015625)"/>
       <path id="DejaVuSans-c" d="M 513 4856 
L 1013 4856 
Q 1481 4119 1714 3412 
Q 1947 2706 1947 2009 
Q 1947 1309 1714 600 
Q 1481 -109 1013 -844 
L 513 -844 
Q 928 -128 1133 580 
Q 1338 1288 1338 2009 
Q 1338 2731 1133 3434 
Q 928 4138 513 4856 
z
" transform="scale(0.015625)"/>
       <path id="DejaVuSans-3e" d="M 550 4863 
L 1875 4863 
L 1875 4416 
L 1125 4416 
L 1125 -397 
L 1875 -397 
L 1875 -844 
L 550 -844 
L 550 4863 
z
" transform="scale(0.015625)"/>
       <path id="DejaVuSans-33d" d="M 4647 556 
L 4647 0 
L 2772 0 
L 2772 556 
Q 3325 859 3634 1378 
Q 3944 1897 3944 2528 
Q 3944 3278 3531 3731 
Q 3119 4184 2444 4184 
Q 1769 4184 1355 3729 
Q 941 3275 941 2528 
Q 941 1897 1250 1378 
Q 1563 859 2119 556 
L 2119 0 
L 244 0 
L 244 556 
L 1241 556 
Q 747 991 519 1456 
Q 294 1922 294 2497 
Q 294 3491 894 4106 
Q 1491 4722 2444 4722 
Q 3391 4722 3994 4106 
Q 4594 3494 4594 2528 
Q 4594 1922 4372 1459 
Q 4150 997 3647 556 
L 4647 556 
z
" transform="scale(0.015625)"/>
       <path id="DejaVuSans-12" d="M 1625 4666 
L 2156 4666 
L 531 -594 
L 0 -594 
L 1625 4666 
z
" transform="scale(0.015625)"/>
       <path id="DejaVuSans-4e" d="M 581 4863 
L 1159 4863 
L 1159 1991 
L 2875 3500 
L 3609 3500 
L 1753 1863 
L 3688 0 
L 2938 0 
L 1159 1709 
L 1159 0 
L 581 0 
L 581 4863 
z
" transform="scale(0.015625)"/>
       <path id="DejaVuSans-40" d="M 1947 4863 
L 1947 -844 
L 622 -844 
L 622 -397 
L 1369 -397 
L 1369 4416 
L 622 4416 
L 622 4863 
L 1947 4863 
z
" transform="scale(0.015625)"/>
      </defs>
      <use xlink:href="#DejaVuSans-35"/>
      <use xlink:href="#DejaVuSans-b" transform="translate(69.484375 0)"/>
      <use xlink:href="#DejaVuSans-4b" transform="translate(108.5 0)"/>
      <use xlink:href="#DejaVuSans-c" transform="translate(171.875 0)"/>
      <use xlink:href="#DejaVuSans-3" transform="translate(210.890625 0)"/>
      <use xlink:href="#DejaVuSans-3e" transform="translate(242.671875 0)"/>
      <use xlink:href="#DejaVuSans-33d" transform="translate(281.6875 0)"/>
      <use xlink:href="#DejaVuSans-12" transform="translate(358.109375 0)"/>
      <use xlink:href="#DejaVuSans-4e" transform="translate(391.796875 0)"/>
      <use xlink:href="#DejaVuSans-50" transform="translate(449.703125 0)"/>
      <use xlink:href="#DejaVuSans-40" transform="translate(547.109375 0)"/>
     </g>
    </g>
   </g>
   <g id="line2d_27">
    <path d="M 59.965479 229.831258 
L 86.401434 215.900293 
L 112.837389 202.988652 
L 139.273344 188.923781 
L 165.709298 174.179929 
L 192.145253 159.082782 
L 218.581208 143.809948 
L 271.453118 113.056897 
L 324.325027 82.253046 
L 377.196937 51.532233 
" clip-path="url(#p276adb44e7)" style="fill: none; stroke: #d62728; stroke-width: 1.5; stroke-linecap: square"/>
    <defs>
     <path id="mcfbe7f2bf1" d="M 0 3 
C 0.795609 3 1.55874 2.683901 2.12132 2.12132 
C 2.683901 1.55874 3 0.795609 3 0 
C 3 -0.795609 2.683901 -1.55874 2.12132 -2.12132 
C 1.55874 -2.683901 0.795609 -3 0 -3 
C -0.795609 -3 -1.55874 -2.683901 -2.12132 -2.12132 
C -2.683901 -1.55874 -3 -0.795609 -3 0 
C -3 0.795609 -2.683901 1.55874 -2.12132 2.12132 
C -1.55874 2.683901 -0.795609 3 0 3 
z
" style="stroke: #d62728"/>
    </defs>
    <g clip-path="url(#p276adb44e7)">
     <use xlink:href="#mcfbe7f2bf1" x="59.965479" y="229.831258" style="fill: #d62728; stroke: #d62728"/>
     <use xlink:href="#mcfbe7f2bf1" x="86.401434" y="215.900293" style="fill: #d62728; stroke: #d62728"/>
     <use xlink:href="#mcfbe7f2bf1" x="112.837389" y="202.988652" style="fill: #d62728; stroke: #d62728"/>
     <use xlink:href="#mcfbe7f2bf1" x="139.273344" y="188.923781" style="fill: #d62728; stroke: #d62728"/>
     <use xlink:href="#mcfbe7f2bf1" x="165.709298" y="174.179929" style="fill: #d62728; stroke: #d62728"/>
     <use xlink:href="#mcfbe7f2bf1" x="192.145253" y="159.082782" style="fill: #d62728; stroke: #d62728"/>
     <use xlink:href="#mcfbe7f2bf1" x="218.581208" y="143.809948" style="fill: #d62728; stroke: #d62728"/>
     <use xlink:href="#mcfbe7f2bf1" x="271.453118" y="113.056897" style="fill: #d62728; stroke: #d62728"/>
     <use xlink:href="#mcfbe7f2bf1" x="324.325027" y="82.253046" style="fill: #d62728; stroke: #d62728"/>
     <use xlink:href="#mcfbe7f2bf1" x="377.196937" y="51.532233" style="fill: #d62728; stroke: #d62728"/>
    </g>
   </g>
   <g id="line2d_28">
    <path d="M 59.965479 275.786048 
L 86.401434 274.72701 
L 112.837389 272.897986 
L 139.273344 270.676368 
L 165.709298 268.367617 
L 192.145253 266.146117 
L 218.581208 264.080962 
L 271.453118 260.430649 
L 324.325027 257.281317 
L 377.196937 254.468881 
" clip-path="url(#p276adb44e7)" style="fill: none; stroke: #1f77b4; stroke-width: 1.5; stroke-linecap: square"/>
    <defs>
     <path id="m3d2da0b0a8" d="M -3 3 
L 3 3 
L 3 -3 
L -3 -3 
z
" style="stroke: #1f77b4; stroke-linejoin: miter"/>
    </defs>
    <g clip-path="url(#p276adb44e7)">
     <use xlink:href="#m3d2da0b0a8" x="59.965479" y="275.786048" style="fill: #1f77b4; stroke: #1f77b4; stroke-linejoin: miter"/>
     <use xlink:href="#m3d2da0b0a8" x="86.401434" y="274.72701" style="fill: #1f77b4; stroke: #1f77b4; stroke-linejoin: miter"/>
     <use xlink:href="#m3d2da0b0a8" x="112.837389" y="272.897986" style="fill: #1f77b4; stroke: #1f77b4; stroke-linejoin: miter"/>
     <use xlink:href="#m3d2da0b0a8" x="139.273344" y="270.676368" style="fill: #1f77b4; stroke: #1f77b4; stroke-linejoin: miter"/>
     <use xlink:href="#m3d2da0b0a8" x="165.709298" y="268.367617" style="fill: #1f77b4; stroke: #1f77b4; stroke-linejoin: miter"/>
     <use xlink:href="#m3d2da0b0a8" x="192.145253" y="266.146117" style="fill: #1f77b4; stroke: #1f77b4; stroke-linejoin: miter"/>
     <use xlink:href="#m3d2da0b0a8" x="218.581208" y="264.080962" style="fill: #1f77b4; stroke: #1f77b4; stroke-linejoin: miter"/>
     <use xlink:href="#m3d2da0b0a8" x="271.453118" y="260.430649" style="fill: #1f77b4; stroke: #1f77b4; stroke-linejoin: miter"/>
     <use xlink:href="#m3d2da0b0a8" x="324.325027" y="257.281317" style="fill: #1f77b4; stroke: #1f77b4; stroke-linejoin: miter"/>
     <use xlink:href="#m3d2da0b0a8" x="377.196937" y="254.468881" style="fill: #1f77b4; stroke: #1f77b4; stroke-linejoin: miter"/>
    </g>
   </g>
   <g id="line2d_29">
    <path d="M 59.965479 275.786048 
L 86.401434 274.736024 
L 112.837389 272.914387 
L 139.273344 270.699709 
L 165.709298 268.397444 
L 192.145253 266.182122 
L 218.581208 264.123042 
L 271.453118 260.485131 
L 324.325027 257.348873 
L 377.196937 254.55015 
" clip-path="url(#p276adb44e7)" style="fill: none; stroke-dasharray: 5.55,2.4; stroke-dashoffset: 0; stroke: #2ca02c; stroke-width: 1.5"/>
    <defs>
     <path id="m504674d336" d="M -3 3 
L 3 -3 
M -3 -3 
L 3 3 
" style="stroke: #2ca02c"/>
    </defs>
    <g clip-path="url(#p276adb44e7)">
     <use xlink:href="#m504674d336" x="59.965479" y="275.786048" style="fill: #2ca02c; stroke: #2ca02c"/>
     <use xlink:href="#m504674d336" x="86.401434" y="274.736024" style="fill: #2ca02c; stroke: #2ca02c"/>
     <use xlink:href="#m504674d336" x="112.837389" y="272.914387" style="fill: #2ca02c; stroke: #2ca02c"/>
     <use xlink:href="#m504674d336" x="139.273344" y="270.699709" style="fill: #2ca02c; stroke: #2ca02c"/>
     <use xlink:href="#m504674d336" x="165.709298" y="268.397444" style="fill: #2ca02c; stroke: #2ca02c"/>
     <use xlink:href="#m504674d336" x="192.145253" y="266.182122" style="fill: #2ca02c; stroke: #2ca02c"/>
     <use xlink:href="#m504674d336" x="218.581208" y="264.123042" style="fill: #2ca02c; stroke: #2ca02c"/>
     <use xlink:href="#m504674d336" x="271.453118" y="260.485131" style="fill: #2ca02c; stroke: #2ca02c"/>
     <use xlink:href="#m504674d336" x="324.325027" y="257.348873" style="fill: #2ca02c; stroke: #2ca02c"/>
     <use xlink:href="#m504674d336" x="377.196937" y="254.55015" style="fill: #2ca02c; stroke: #2ca02c"/>
    </g>
   </g>
   <g id="patch_3">
    <path d="M 44.103906 286.998739 
L 44.103906 40.319543 
" style="fill: none; stroke: #000000; stroke-width: 0.8; stroke-linejoin: miter; stroke-linecap: square"/>
   </g>
   <g id="patch_4">
    <path d="M 393.05851 286.998739 
L 393.05851 40.319543 
" style="fill: none; stroke: #000000; stroke-width: 0.8; stroke-linejoin: miter; stroke-linecap: square"/>
   </g>
   <g id="patch_5">
    <path d="M 44.103906 286.998739 
L 393.05851 286.998739 
" style="fill: none; stroke: #000000; stroke-width: 0.8; stroke-linejoin: miter; stroke-linecap: square"/>
   </g>
   <g id="patch_6">
    <path d="M 44.103906 40.319542 
L 393.05851 40.319542 
" style="fill: none; stroke: #000000; stroke-width: 0.8; stroke-linejoin: miter; stroke-linecap: square"/>
   </g>
   <g id="text_16">
    <!-- Resistance -->
    <g transform="translate(186.248708 34.319542) scale(0.12 -0.12)">
     <defs>
      <path id="DejaVuSans-56" d="M 2834 3397 
L 2834 2853 
Q 2591 2978 2328 3040 
Q 2066 3103 1784 3103 
Q 1356 3103 1142 2972 
Q 928 2841 928 2578 
Q 928 2378 1081 2264 
Q 1234 2150 1697 2047 
L 1894 2003 
Q 2506 1872 2764 1633 
Q 3022 1394 3022 966 
Q 3022 478 2636 193 
Q 2250 -91 1575 -91 
Q 1294 -91 989 -36 
Q 684 19 347 128 
L 347 722 
Q 666 556 975 473 
Q 1284 391 1588 391 
Q 1994 391 2212 530 
Q 2431 669 2431 922 
Q 2431 1156 2273 1281 
Q 2116 1406 1581 1522 
L 1381 1569 
Q 847 1681 609 1914 
Q 372 2147 372 2553 
Q 372 3047 722 3315 
Q 1072 3584 1716 3584 
Q 2034 3584 2315 3537 
Q 2597 3491 2834 3397 
z
" transform="scale(0.015625)"/>
      <path id="DejaVuSans-57" d="M 1172 4494 
L 1172 3500 
L 2356 3500 
L 2356 3053 
L 1172 3053 
L 1172 1153 
Q 1172 725 1289 603 
Q 1406 481 1766 481 
L 2356 481 
L 2356 0 
L 1766 0 
Q 1100 0 847 248 
Q 594 497 594 1153 
L 594 3053 
L 172 3053 
L 172 3500 
L 594 3500 
L 594 4494 
L 1172 4494 
z
" transform="scale(0.015625)"/>
     </defs>
     <use xlink:href="#DejaVuSans-35"/>
     <use xlink:href="#DejaVuSans-48" transform="translate(65 0)"/>
     <use xlink:href="#DejaVuSans-56" transform="translate(126.53125 0)"/>
     <use xlink:href="#DejaVuSans-4c" transform="translate(178.625 0)"/>
     <use xlink:href="#DejaVuSans-56" transform="translate(206.40625 0)"/>
     <use xlink:href="#DejaVuSans-57" transform="translate(258.5 0)"/>
     <use xlink:href="#DejaVuSans-44" transform="translate(297.703125 0)"/>
     <use xlink:href="#DejaVuSans-51" transform="translate(358.984375 0)"/>
     <use xlink:href="#DejaVuSans-46" transform="translate(422.359375 0)"/>
     <use xlink:href="#DejaVuSans-48" transform="translate(477.34375 0)"/>
    </g>
   </g>
   <g id="legend_1">
    <g id="patch_7">
     <path d="M 51.103906 93.321886 
L 161.828906 93.321886 
Q 163.828906 93.321886 163.828906 91.321886 
L 163.828906 47.319542 
Q 163.828906 45.319542 161.828906 45.319542 
L 51.103906 45.319542 
Q 49.103906 45.319542 49.103906 47.319542 
L 49.103906 91.321886 
Q 49.103906 93.321886 51.103906 93.321886 
z
" style="fill: #ffffff; opacity: 0.8; stroke: #cccccc; stroke-linejoin: miter"/>
    </g>
    <g id="line2d_30">
     <path d="M 53.103906 53.41798 
L 63.103906 53.41798 
L 73.103906 53.41798 
" style="fill: none; stroke: #d62728; stroke-width: 1.5; stroke-linecap: square"/>
     <g>
      <use xlink:href="#mcfbe7f2bf1" x="63.103906" y="53.41798" style="fill: #d62728; stroke: #d62728"/>
     </g>
    </g>
    <g id="text_17">
     <!-- zero seq R0 -->
     <g transform="translate(81.103906 56.91798) scale(0.1 -0.1)">
      <defs>
       <path id="DejaVuSans-5d" d="M 353 3500 
L 3084 3500 
L 3084 2975 
L 922 459 
L 3084 459 
L 3084 0 
L 275 0 
L 275 525 
L 2438 3041 
L 353 3041 
L 353 3500 
z
" transform="scale(0.015625)"/>
       <path id="DejaVuSans-54" d="M 947 1747 
Q 947 1113 1208 752 
Q 1469 391 1925 391 
Q 2381 391 2643 752 
Q 2906 1113 2906 1747 
Q 2906 2381 2643 2742 
Q 2381 3103 1925 3103 
Q 1469 3103 1208 2742 
Q 947 2381 947 1747 
z
M 2906 525 
Q 2725 213 2448 61 
Q 2172 -91 1784 -91 
Q 1150 -91 751 415 
Q 353 922 353 1747 
Q 353 2572 751 3078 
Q 1150 3584 1784 3584 
Q 2172 3584 2448 3432 
Q 2725 3281 2906 2969 
L 2906 3500 
L 3481 3500 
L 3481 -1331 
L 2906 -1331 
L 2906 525 
z
" transform="scale(0.015625)"/>
      </defs>
      <use xlink:href="#DejaVuSans-5d"/>
      <use xlink:href="#DejaVuSans-48" transform="translate(52.484375 0)"/>
      <use xlink:href="#DejaVuSans-55" transform="translate(114.015625 0)"/>
      <use xlink:href="#DejaVuSans-52" transform="translate(152.921875 0)"/>
      <use xlink:href="#DejaVuSans-3" transform="translate(214.109375 0)"/>
      <use xlink:href="#DejaVuSans-56" transform="translate(245.890625 0)"/>
      <use xlink:href="#DejaVuSans-48" transform="translate(297.984375 0)"/>
      <use xlink:href="#DejaVuSans-54" transform="translate(359.515625 0)"/>
      <use xlink:href="#DejaVuSans-3" transform="translate(423 0)"/>
      <use xlink:href="#DejaVuSans-35" transform="translate(454.78125 0)"/>
      <use xlink:href="#DejaVuSans-13" transform="translate(524.265625 0)"/>
     </g>
    </g>
    <g id="line2d_31">
     <path d="M 53.103906 68.418761 
L 63.103906 68.418761 
L 73.103906 68.418761 
" style="fill: none; stroke: #1f77b4; stroke-width: 1.5; stroke-linecap: square"/>
     <g>
      <use xlink:href="#m3d2da0b0a8" x="63.103906" y="68.418761" style="fill: #1f77b4; stroke: #1f77b4; stroke-linejoin: miter"/>
     </g>
    </g>
    <g id="text_18">
     <!-- pos seq R1 -->
     <g transform="translate(81.103906 71.918761) scale(0.1 -0.1)">
      <defs>
       <path id="DejaVuSans-53" d="M 1159 525 
L 1159 -1331 
L 581 -1331 
L 581 3500 
L 1159 3500 
L 1159 2969 
Q 1341 3281 1617 3432 
Q 1894 3584 2278 3584 
Q 2916 3584 3314 3078 
Q 3713 2572 3713 1747 
Q 3713 922 3314 415 
Q 2916 -91 2278 -91 
Q 1894 -91 1617 61 
Q 1341 213 1159 525 
z
M 3116 1747 
Q 3116 2381 2855 2742 
Q 2594 3103 2138 3103 
Q 1681 3103 1420 2742 
Q 1159 2381 1159 1747 
Q 1159 1113 1420 752 
Q 1681 391 2138 391 
Q 2594 391 2855 752 
Q 3116 1113 3116 1747 
z
" transform="scale(0.015625)"/>
      </defs>
      <use xlink:href="#DejaVuSans-53"/>
      <use xlink:href="#DejaVuSans-52" transform="translate(63.484375 0)"/>
      <use xlink:href="#DejaVuSans-56" transform="translate(124.671875 0)"/>
      <use xlink:href="#DejaVuSans-3" transform="translate(176.765625 0)"/>
      <use xlink:href="#DejaVuSans-56" transform="translate(208.546875 0)"/>
      <use xlink:href="#DejaVuSans-48" transform="translate(260.640625 0)"/>
      <use xlink:href="#DejaVuSans-54" transform="translate(322.171875 0)"/>
      <use xlink:href="#DejaVuSans-3" transform="translate(385.65625 0)"/>
      <use xlink:href="#DejaVuSans-35" transform="translate(417.4375 0)"/>
      <use xlink:href="#DejaVuSans-14" transform="translate(486.921875 0)"/>
     </g>
    </g>
    <g id="line2d_32">
     <path d="M 53.103906 83.419542 
L 63.103906 83.419542 
L 73.103906 83.419542 
" style="fill: none; stroke-dasharray: 5.55,2.4; stroke-dashoffset: 0; stroke: #2ca02c; stroke-width: 1.5"/>
     <g>
      <use xlink:href="#m504674d336" x="63.103906" y="83.419542" style="fill: #2ca02c; stroke: #2ca02c"/>
     </g>
    </g>
    <g id="text_19">
     <!-- R1 model (skin) -->
     <g transform="translate(81.103906 86.919542) scale(0.1 -0.1)">
      <defs>
       <path id="DejaVuSans-4f" d="M 603 4863 
L 1178 4863 
L 1178 0 
L 603 0 
L 603 4863 
z
" transform="scale(0.015625)"/>
      </defs>
      <use xlink:href="#DejaVuSans-35"/>
      <use xlink:href="#DejaVuSans-14" transform="translate(69.484375 0)"/>
      <use xlink:href="#DejaVuSans-3" transform="translate(133.109375 0)"/>
      <use xlink:href="#DejaVuSans-50" transform="translate(164.890625 0)"/>
      <use xlink:href="#DejaVuSans-52" transform="translate(262.296875 0)"/>
      <use xlink:href="#DejaVuSans-47" transform="translate(323.484375 0)"/>
      <use xlink:href="#DejaVuSans-48" transform="translate(386.96875 0)"/>
      <use xlink:href="#DejaVuSans-4f" transform="translate(448.5 0)"/>
      <use xlink:href="#DejaVuSans-3" transform="translate(476.28125 0)"/>
      <use xlink:href="#DejaVuSans-b" transform="translate(508.0625 0)"/>
      <use xlink:href="#DejaVuSans-56" transform="translate(547.078125 0)"/>
      <use xlink:href="#DejaVuSans-4e" transform="translate(599.171875 0)"/>
      <use xlink:href="#DejaVuSans-4c" transform="translate(657.078125 0)"/>
      <use xlink:href="#DejaVuSans-51" transform="translate(684.859375 0)"/>
      <use xlink:href="#DejaVuSans-c" transform="translate(748.234375 0)"/>
     </g>
    </g>
   </g>
  </g>
  <g id="axes_2">
   <g id="patch_8">
    <path d="M 444.244916 286.998739 
L 793.19952 286.998739 
L 793.19952 40.319542 
L 444.244916 40.319542 
z
" style="fill: #ffffff"/>
   </g>
   <g id="matplotlib.axis_3">
    <g id="xtick_7">
     <g id="line2d_33">
      <path d="M 446.888512 286.998739 
L 446.888512 40.319542 
" clip-path="url(#p1414ec4d6f)" style="fill: none; stroke: #b0b0b0; stroke-opacity: 0.3; stroke-width: 0.8; stroke-linecap: square"/>
     </g>
     <g id="line2d_34">
      <g>
       <use xlink:href="#mb7d5ff7bfe" x="446.888512" y="286.998739" style="stroke: #000000; stroke-width: 0.8"/>
      </g>
     </g>
     <g id="text_20">
      <!-- 0 -->
      <g transform="translate(443.707262 301.596395) scale(0.1 -0.1)">
       <use xlink:href="#DejaVuSans-13"/>
      </g>
     </g>
    </g>
    <g id="xtick_8">
     <g id="line2d_35">
      <path d="M 512.978399 286.998739 
L 512.978399 40.319542 
" clip-path="url(#p1414ec4d6f)" style="fill: none; stroke: #b0b0b0; stroke-opacity: 0.3; stroke-width: 0.8; stroke-linecap: square"/>
     </g>
     <g id="line2d_36">
      <g>
       <use xlink:href="#mb7d5ff7bfe" x="512.978399" y="286.998739" style="stroke: #000000; stroke-width: 0.8"/>
      </g>
     </g>
     <g id="text_21">
      <!-- 5 -->
      <g transform="translate(509.797149 301.596395) scale(0.1 -0.1)">
       <use xlink:href="#DejaVuSans-18"/>
      </g>
     </g>
    </g>
    <g id="xtick_9">
     <g id="line2d_37">
      <path d="M 579.068286 286.998739 
L 579.068286 40.319542 
" clip-path="url(#p1414ec4d6f)" style="fill: none; stroke: #b0b0b0; stroke-opacity: 0.3; stroke-width: 0.8; stroke-linecap: square"/>
     </g>
     <g id="line2d_38">
      <g>
       <use xlink:href="#mb7d5ff7bfe" x="579.068286" y="286.998739" style="stroke: #000000; stroke-width: 0.8"/>
      </g>
     </g>
     <g id="text_22">
      <!-- 10 -->
      <g transform="translate(572.705786 301.596395) scale(0.1 -0.1)">
       <use xlink:href="#DejaVuSans-14"/>
       <use xlink:href="#DejaVuSans-13" transform="translate(63.625 0)"/>
      </g>
     </g>
    </g>
    <g id="xtick_10">
     <g id="line2d_39">
      <path d="M 645.158173 286.998739 
L 645.158173 40.319542 
" clip-path="url(#p1414ec4d6f)" style="fill: none; stroke: #b0b0b0; stroke-opacity: 0.3; stroke-width: 0.8; stroke-linecap: square"/>
     </g>
     <g id="line2d_40">
      <g>
       <use xlink:href="#mb7d5ff7bfe" x="645.158173" y="286.998739" style="stroke: #000000; stroke-width: 0.8"/>
      </g>
     </g>
     <g id="text_23">
      <!-- 15 -->
      <g transform="translate(638.795673 301.596395) scale(0.1 -0.1)">
       <use xlink:href="#DejaVuSans-14"/>
       <use xlink:href="#DejaVuSans-18" transform="translate(63.625 0)"/>
      </g>
     </g>
    </g>
    <g id="xtick_11">
     <g id="line2d_41">
      <path d="M 711.24806 286.998739 
L 711.24806 40.319542 
" clip-path="url(#p1414ec4d6f)" style="fill: none; stroke: #b0b0b0; stroke-opacity: 0.3; stroke-width: 0.8; stroke-linecap: square"/>
     </g>
     <g id="line2d_42">
      <g>
       <use xlink:href="#mb7d5ff7bfe" x="711.24806" y="286.998739" style="stroke: #000000; stroke-width: 0.8"/>
      </g>
     </g>
     <g id="text_24">
      <!-- 20 -->
      <g transform="translate(704.88556 301.596395) scale(0.1 -0.1)">
       <use xlink:href="#DejaVuSans-15"/>
       <use xlink:href="#DejaVuSans-13" transform="translate(63.625 0)"/>
      </g>
     </g>
    </g>
    <g id="xtick_12">
     <g id="line2d_43">
      <path d="M 777.337947 286.998739 
L 777.337947 40.319542 
" clip-path="url(#p1414ec4d6f)" style="fill: none; stroke: #b0b0b0; stroke-opacity: 0.3; stroke-width: 0.8; stroke-linecap: square"/>
     </g>
     <g id="line2d_44">
      <g>
       <use xlink:href="#mb7d5ff7bfe" x="777.337947" y="286.998739" style="stroke: #000000; stroke-width: 0.8"/>
      </g>
     </g>
     <g id="text_25">
      <!-- 25 -->
      <g transform="translate(770.975447 301.596395) scale(0.1 -0.1)">
       <use xlink:href="#DejaVuSans-15"/>
       <use xlink:href="#DejaVuSans-18" transform="translate(63.625 0)"/>
      </g>
     </g>
    </g>
    <g id="text_26">
     <!-- harmonic order h -->
     <g transform="translate(575.604249 315.597176) scale(0.1 -0.1)">
      <use xlink:href="#DejaVuSans-4b"/>
      <use xlink:href="#DejaVuSans-44" transform="translate(63.375 0)"/>
      <use xlink:href="#DejaVuSans-55" transform="translate(124.65625 0)"/>
      <use xlink:href="#DejaVuSans-50" transform="translate(164.015625 0)"/>
      <use xlink:href="#DejaVuSans-52" transform="translate(261.421875 0)"/>
      <use xlink:href="#DejaVuSans-51" transform="translate(322.609375 0)"/>
      <use xlink:href="#DejaVuSans-4c" transform="translate(385.984375 0)"/>
      <use xlink:href="#DejaVuSans-46" transform="translate(413.765625 0)"/>
      <use xlink:href="#DejaVuSans-3" transform="translate(468.75 0)"/>
      <use xlink:href="#DejaVuSans-52" transform="translate(500.53125 0)"/>
      <use xlink:href="#DejaVuSans-55" transform="translate(561.71875 0)"/>
      <use xlink:href="#DejaVuSans-47" transform="translate(601.078125 0)"/>
      <use xlink:href="#DejaVuSans-48" transform="translate(664.5625 0)"/>
      <use xlink:href="#DejaVuSans-55" transform="translate(726.09375 0)"/>
      <use xlink:href="#DejaVuSans-3" transform="translate(767.203125 0)"/>
      <use xlink:href="#DejaVuSans-4b" transform="translate(798.984375 0)"/>
     </g>
    </g>
   </g>
   <g id="matplotlib.axis_4">
    <g id="ytick_8">
     <g id="line2d_45">
      <path d="M 444.244916 279.32046 
L 793.19952 279.32046 
" clip-path="url(#p1414ec4d6f)" style="fill: none; stroke: #b0b0b0; stroke-opacity: 0.3; stroke-width: 0.8; stroke-linecap: square"/>
     </g>
     <g id="line2d_46">
      <g>
       <use xlink:href="#me92bf7b824" x="444.244916" y="279.32046" style="stroke: #000000; stroke-width: 0.8"/>
      </g>
     </g>
     <g id="text_27">
      <!-- 0.0 -->
      <g transform="translate(421.341791 283.119288) scale(0.1 -0.1)">
       <use xlink:href="#DejaVuSans-13"/>
       <use xlink:href="#DejaVuSans-11" transform="translate(63.625 0)"/>
       <use xlink:href="#DejaVuSans-13" transform="translate(95.40625 0)"/>
      </g>
     </g>
    </g>
    <g id="ytick_9">
     <g id="line2d_47">
      <path d="M 444.244916 251.648139 
L 793.19952 251.648139 
" clip-path="url(#p1414ec4d6f)" style="fill: none; stroke: #b0b0b0; stroke-opacity: 0.3; stroke-width: 0.8; stroke-linecap: square"/>
     </g>
     <g id="line2d_48">
      <g>
       <use xlink:href="#me92bf7b824" x="444.244916" y="251.648139" style="stroke: #000000; stroke-width: 0.8"/>
      </g>
     </g>
     <g id="text_28">
      <!-- 2.5 -->
      <g transform="translate(421.341791 255.446967) scale(0.1 -0.1)">
       <use xlink:href="#DejaVuSans-15"/>
       <use xlink:href="#DejaVuSans-11" transform="translate(63.625 0)"/>
       <use xlink:href="#DejaVuSans-18" transform="translate(95.40625 0)"/>
      </g>
     </g>
    </g>
    <g id="ytick_10">
     <g id="line2d_49">
      <path d="M 444.244916 223.975818 
L 793.19952 223.975818 
" clip-path="url(#p1414ec4d6f)" style="fill: none; stroke: #b0b0b0; stroke-opacity: 0.3; stroke-width: 0.8; stroke-linecap: square"/>
     </g>
     <g id="line2d_50">
      <g>
       <use xlink:href="#me92bf7b824" x="444.244916" y="223.975818" style="stroke: #000000; stroke-width: 0.8"/>
      </g>
     </g>
     <g id="text_29">
      <!-- 5.0 -->
      <g transform="translate(421.341791 227.774646) scale(0.1 -0.1)">
       <use xlink:href="#DejaVuSans-18"/>
       <use xlink:href="#DejaVuSans-11" transform="translate(63.625 0)"/>
       <use xlink:href="#DejaVuSans-13" transform="translate(95.40625 0)"/>
      </g>
     </g>
    </g>
    <g id="ytick_11">
     <g id="line2d_51">
      <path d="M 444.244916 196.303497 
L 793.19952 196.303497 
" clip-path="url(#p1414ec4d6f)" style="fill: none; stroke: #b0b0b0; stroke-opacity: 0.3; stroke-width: 0.8; stroke-linecap: square"/>
     </g>
     <g id="line2d_52">
      <g>
       <use xlink:href="#me92bf7b824" x="444.244916" y="196.303497" style="stroke: #000000; stroke-width: 0.8"/>
      </g>
     </g>
     <g id="text_30">
      <!-- 7.5 -->
      <g transform="translate(421.341791 200.102325) scale(0.1 -0.1)">
       <defs>
        <path id="DejaVuSans-1a" d="M 525 4666 
L 3525 4666 
L 3525 4397 
L 1831 0 
L 1172 0 
L 2766 4134 
L 525 4134 
L 525 4666 
z
" transform="scale(0.015625)"/>
       </defs>
       <use xlink:href="#DejaVuSans-1a"/>
       <use xlink:href="#DejaVuSans-11" transform="translate(63.625 0)"/>
       <use xlink:href="#DejaVuSans-18" transform="translate(95.40625 0)"/>
      </g>
     </g>
    </g>
    <g id="ytick_12">
     <g id="line2d_53">
      <path d="M 444.244916 168.631176 
L 793.19952 168.631176 
" clip-path="url(#p1414ec4d6f)" style="fill: none; stroke: #b0b0b0; stroke-opacity: 0.3; stroke-width: 0.8; stroke-linecap: square"/>
     </g>
     <g id="line2d_54">
      <g>
       <use xlink:href="#me92bf7b824" x="444.244916" y="168.631176" style="stroke: #000000; stroke-width: 0.8"/>
      </g>
     </g>
     <g id="text_31">
      <!-- 10.0 -->
      <g transform="translate(414.979291 172.430004) scale(0.1 -0.1)">
       <use xlink:href="#DejaVuSans-14"/>
       <use xlink:href="#DejaVuSans-13" transform="translate(63.625 0)"/>
       <use xlink:href="#DejaVuSans-11" transform="translate(127.25 0)"/>
       <use xlink:href="#DejaVuSans-13" transform="translate(159.03125 0)"/>
      </g>
     </g>
    </g>
    <g id="ytick_13">
     <g id="line2d_55">
      <path d="M 444.244916 140.958854 
L 793.19952 140.958854 
" clip-path="url(#p1414ec4d6f)" style="fill: none; stroke: #b0b0b0; stroke-opacity: 0.3; stroke-width: 0.8; stroke-linecap: square"/>
     </g>
     <g id="line2d_56">
      <g>
       <use xlink:href="#me92bf7b824" x="444.244916" y="140.958854" style="stroke: #000000; stroke-width: 0.8"/>
      </g>
     </g>
     <g id="text_32">
      <!-- 12.5 -->
      <g transform="translate(414.979291 144.757683) scale(0.1 -0.1)">
       <use xlink:href="#DejaVuSans-14"/>
       <use xlink:href="#DejaVuSans-15" transform="translate(63.625 0)"/>
       <use xlink:href="#DejaVuSans-11" transform="translate(127.25 0)"/>
       <use xlink:href="#DejaVuSans-18" transform="translate(159.03125 0)"/>
      </g>
     </g>
    </g>
    <g id="ytick_14">
     <g id="line2d_57">
      <path d="M 444.244916 113.286533 
L 793.19952 113.286533 
" clip-path="url(#p1414ec4d6f)" style="fill: none; stroke: #b0b0b0; stroke-opacity: 0.3; stroke-width: 0.8; stroke-linecap: square"/>
     </g>
     <g id="line2d_58">
      <g>
       <use xlink:href="#me92bf7b824" x="444.244916" y="113.286533" style="stroke: #000000; stroke-width: 0.8"/>
      </g>
     </g>
     <g id="text_33">
      <!-- 15.0 -->
      <g transform="translate(414.979291 117.085361) scale(0.1 -0.1)">
       <use xlink:href="#DejaVuSans-14"/>
       <use xlink:href="#DejaVuSans-18" transform="translate(63.625 0)"/>
       <use xlink:href="#DejaVuSans-11" transform="translate(127.25 0)"/>
       <use xlink:href="#DejaVuSans-13" transform="translate(159.03125 0)"/>
      </g>
     </g>
    </g>
    <g id="ytick_15">
     <g id="line2d_59">
      <path d="M 444.244916 85.614212 
L 793.19952 85.614212 
" clip-path="url(#p1414ec4d6f)" style="fill: none; stroke: #b0b0b0; stroke-opacity: 0.3; stroke-width: 0.8; stroke-linecap: square"/>
     </g>
     <g id="line2d_60">
      <g>
       <use xlink:href="#me92bf7b824" x="444.244916" y="85.614212" style="stroke: #000000; stroke-width: 0.8"/>
      </g>
     </g>
     <g id="text_34">
      <!-- 17.5 -->
      <g transform="translate(414.979291 89.41304) scale(0.1 -0.1)">
       <use xlink:href="#DejaVuSans-14"/>
       <use xlink:href="#DejaVuSans-1a" transform="translate(63.625 0)"/>
       <use xlink:href="#DejaVuSans-11" transform="translate(127.25 0)"/>
       <use xlink:href="#DejaVuSans-18" transform="translate(159.03125 0)"/>
      </g>
     </g>
    </g>
    <g id="ytick_16">
     <g id="line2d_61">
      <path d="M 444.244916 57.941891 
L 793.19952 57.941891 
" clip-path="url(#p1414ec4d6f)" style="fill: none; stroke: #b0b0b0; stroke-opacity: 0.3; stroke-width: 0.8; stroke-linecap: square"/>
     </g>
     <g id="line2d_62">
      <g>
       <use xlink:href="#me92bf7b824" x="444.244916" y="57.941891" style="stroke: #000000; stroke-width: 0.8"/>
      </g>
     </g>
     <g id="text_35">
      <!-- 20.0 -->
      <g transform="translate(414.979291 61.740719) scale(0.1 -0.1)">
       <use xlink:href="#DejaVuSans-15"/>
       <use xlink:href="#DejaVuSans-13" transform="translate(63.625 0)"/>
       <use xlink:href="#DejaVuSans-11" transform="translate(127.25 0)"/>
       <use xlink:href="#DejaVuSans-13" transform="translate(159.03125 0)"/>
      </g>
     </g>
    </g>
    <g id="text_36">
     <!-- X(h) [Ω/km] -->
     <g transform="translate(408.576947 192.916172) rotate(-90) scale(0.1 -0.1)">
      <defs>
       <path id="DejaVuSans-3b" d="M 403 4666 
L 1081 4666 
L 2241 2931 
L 3406 4666 
L 4084 4666 
L 2584 2425 
L 4184 0 
L 3506 0 
L 2194 1984 
L 872 0 
L 191 0 
L 1856 2491 
L 403 4666 
z
" transform="scale(0.015625)"/>
      </defs>
      <use xlink:href="#DejaVuSans-3b"/>
      <use xlink:href="#DejaVuSans-b" transform="translate(68.5 0)"/>
      <use xlink:href="#DejaVuSans-4b" transform="translate(107.515625 0)"/>
      <use xlink:href="#DejaVuSans-c" transform="translate(170.890625 0)"/>
      <use xlink:href="#DejaVuSans-3" transform="translate(209.90625 0)"/>
      <use xlink:href="#DejaVuSans-3e" transform="translate(241.6875 0)"/>
      <use xlink:href="#DejaVuSans-33d" transform="translate(280.703125 0)"/>
      <use xlink:href="#DejaVuSans-12" transform="translate(357.125 0)"/>
      <use xlink:href="#DejaVuSans-4e" transform="translate(390.8125 0)"/>
      <use xlink:href="#DejaVuSans-50" transform="translate(448.71875 0)"/>
      <use xlink:href="#DejaVuSans-40" transform="translate(546.125 0)"/>
     </g>
    </g>
   </g>
   <g id="line2d_63">
    <path d="M 460.106489 268.735675 
L 486.542444 250.350372 
L 512.978399 231.812088 
L 539.414354 213.393404 
L 565.850308 195.094189 
L 592.286263 176.898718 
L 618.722218 158.792793 
L 671.594128 122.80621 
L 724.466037 87.067592 
L 777.337947 51.532233 
" clip-path="url(#p1414ec4d6f)" style="fill: none; stroke: #d62728; stroke-width: 1.5; stroke-linecap: square"/>
    <g clip-path="url(#p1414ec4d6f)">
     <use xlink:href="#mcfbe7f2bf1" x="460.106489" y="268.735675" style="fill: #d62728; stroke: #d62728"/>
     <use xlink:href="#mcfbe7f2bf1" x="486.542444" y="250.350372" style="fill: #d62728; stroke: #d62728"/>
     <use xlink:href="#mcfbe7f2bf1" x="512.978399" y="231.812088" style="fill: #d62728; stroke: #d62728"/>
     <use xlink:href="#mcfbe7f2bf1" x="539.414354" y="213.393404" style="fill: #d62728; stroke: #d62728"/>
     <use xlink:href="#mcfbe7f2bf1" x="565.850308" y="195.094189" style="fill: #d62728; stroke: #d62728"/>
     <use xlink:href="#mcfbe7f2bf1" x="592.286263" y="176.898718" style="fill: #d62728; stroke: #d62728"/>
     <use xlink:href="#mcfbe7f2bf1" x="618.722218" y="158.792793" style="fill: #d62728; stroke: #d62728"/>
     <use xlink:href="#mcfbe7f2bf1" x="671.594128" y="122.80621" style="fill: #d62728; stroke: #d62728"/>
     <use xlink:href="#mcfbe7f2bf1" x="724.466037" y="87.067592" style="fill: #d62728; stroke: #d62728"/>
     <use xlink:href="#mcfbe7f2bf1" x="777.337947" y="51.532233" style="fill: #d62728; stroke: #d62728"/>
    </g>
   </g>
   <g id="line2d_64">
    <path d="M 460.106489 275.786048 
L 486.542444 268.718426 
L 512.978399 261.650861 
L 539.414354 254.583364 
L 565.850308 247.515926 
L 592.286263 240.448535 
L 618.722218 233.381184 
L 671.594128 219.246586 
L 724.466037 205.1121 
L 777.337947 190.977708 
" clip-path="url(#p1414ec4d6f)" style="fill: none; stroke: #1f77b4; stroke-width: 1.5; stroke-linecap: square"/>
    <g clip-path="url(#p1414ec4d6f)">
     <use xlink:href="#m3d2da0b0a8" x="460.106489" y="275.786048" style="fill: #1f77b4; stroke: #1f77b4; stroke-linejoin: miter"/>
     <use xlink:href="#m3d2da0b0a8" x="486.542444" y="268.718426" style="fill: #1f77b4; stroke: #1f77b4; stroke-linejoin: miter"/>
     <use xlink:href="#m3d2da0b0a8" x="512.978399" y="261.650861" style="fill: #1f77b4; stroke: #1f77b4; stroke-linejoin: miter"/>
     <use xlink:href="#m3d2da0b0a8" x="539.414354" y="254.583364" style="fill: #1f77b4; stroke: #1f77b4; stroke-linejoin: miter"/>
     <use xlink:href="#m3d2da0b0a8" x="565.850308" y="247.515926" style="fill: #1f77b4; stroke: #1f77b4; stroke-linejoin: miter"/>
     <use xlink:href="#m3d2da0b0a8" x="592.286263" y="240.448535" style="fill: #1f77b4; stroke: #1f77b4; stroke-linejoin: miter"/>
     <use xlink:href="#m3d2da0b0a8" x="618.722218" y="233.381184" style="fill: #1f77b4; stroke: #1f77b4; stroke-linejoin: miter"/>
     <use xlink:href="#m3d2da0b0a8" x="671.594128" y="219.246586" style="fill: #1f77b4; stroke: #1f77b4; stroke-linejoin: miter"/>
     <use xlink:href="#m3d2da0b0a8" x="724.466037" y="205.1121" style="fill: #1f77b4; stroke: #1f77b4; stroke-linejoin: miter"/>
     <use xlink:href="#m3d2da0b0a8" x="777.337947" y="190.977708" style="fill: #1f77b4; stroke: #1f77b4; stroke-linejoin: miter"/>
    </g>
   </g>
   <g id="line2d_65">
    <path d="M 460.106489 275.786048 
L 486.542444 268.717224 
L 512.978399 261.6484 
L 539.414354 254.579577 
L 565.850308 247.510753 
L 592.286263 240.441929 
L 618.722218 233.373105 
L 671.594128 219.235457 
L 724.466037 205.09781 
L 777.337947 190.960162 
" clip-path="url(#p1414ec4d6f)" style="fill: none; stroke-dasharray: 5.55,2.4; stroke-dashoffset: 0; stroke: #2ca02c; stroke-width: 1.5"/>
    <g clip-path="url(#p1414ec4d6f)">
     <use xlink:href="#m504674d336" x="460.106489" y="275.786048" style="fill: #2ca02c; stroke: #2ca02c"/>
     <use xlink:href="#m504674d336" x="486.542444" y="268.717224" style="fill: #2ca02c; stroke: #2ca02c"/>
     <use xlink:href="#m504674d336" x="512.978399" y="261.6484" style="fill: #2ca02c; stroke: #2ca02c"/>
     <use xlink:href="#m504674d336" x="539.414354" y="254.579577" style="fill: #2ca02c; stroke: #2ca02c"/>
     <use xlink:href="#m504674d336" x="565.850308" y="247.510753" style="fill: #2ca02c; stroke: #2ca02c"/>
     <use xlink:href="#m504674d336" x="592.286263" y="240.441929" style="fill: #2ca02c; stroke: #2ca02c"/>
     <use xlink:href="#m504674d336" x="618.722218" y="233.373105" style="fill: #2ca02c; stroke: #2ca02c"/>
     <use xlink:href="#m504674d336" x="671.594128" y="219.235457" style="fill: #2ca02c; stroke: #2ca02c"/>
     <use xlink:href="#m504674d336" x="724.466037" y="205.09781" style="fill: #2ca02c; stroke: #2ca02c"/>
     <use xlink:href="#m504674d336" x="777.337947" y="190.960162" style="fill: #2ca02c; stroke: #2ca02c"/>
    </g>
   </g>
   <g id="line2d_66">
    <path d="M 460.106489 275.786048 
L 486.542444 268.717224 
L 512.978399 261.6484 
L 539.414354 254.579577 
L 565.850308 247.510753 
L 592.286263 240.441929 
L 618.722218 233.373105 
L 671.594128 219.235457 
L 724.466037 205.09781 
L 777.337947 190.960162 
" clip-path="url(#p1414ec4d6f)" style="fill: none; stroke-dasharray: 1.5,2.475; stroke-dashoffset: 0; stroke: #808080; stroke-width: 1.5"/>
   </g>
   <g id="patch_9">
    <path d="M 444.244916 286.998739 
L 444.244916 40.319542 
" style="fill: none; stroke: #000000; stroke-width: 0.8; stroke-linejoin: miter; stroke-linecap: square"/>
   </g>
   <g id="patch_10">
    <path d="M 793.19952 286.998739 
L 793.19952 40.319542 
" style="fill: none; stroke: #000000; stroke-width: 0.8; stroke-linejoin: miter; stroke-linecap: square"/>
   </g>
   <g id="patch_11">
    <path d="M 444.244916 286.998739 
L 793.19952 286.998739 
" style="fill: none; stroke: #000000; stroke-width: 0.8; stroke-linejoin: miter; stroke-linecap: square"/>
   </g>
   <g id="patch_12">
    <path d="M 444.244916 40.319542 
L 793.19952 40.319542 
" style="fill: none; stroke: #000000; stroke-width: 0.8; stroke-linejoin: miter; stroke-linecap: square"/>
   </g>
   <g id="text_37">
    <!-- Reactance -->
    <g transform="translate(587.331906 34.319542) scale(0.12 -0.12)">
     <use xlink:href="#DejaVuSans-35"/>
     <use xlink:href="#DejaVuSans-48" transform="translate(65 0)"/>
     <use xlink:href="#DejaVuSans-44" transform="translate(126.53125 0)"/>
     <use xlink:href="#DejaVuSans-46" transform="translate(187.8125 0)"/>
     <use xlink:href="#DejaVuSans-57" transform="translate(242.796875 0)"/>
     <use xlink:href="#DejaVuSans-44" transform="translate(282 0)"/>
     <use xlink:href="#DejaVuSans-51" transform="translate(343.28125 0)"/>
     <use xlink:href="#DejaVuSans-46" transform="translate(406.65625 0)"/>
     <use xlink:href="#DejaVuSans-48" transform="translate(461.640625 0)"/>
    </g>
   </g>
   <g id="legend_2">
    <g id="patch_13">
     <path d="M 451.244916 108.322667 
L 555.237104 108.322667 
Q 557.237104 108.322667 557.237104 106.322667 
L 557.237104 47.319542 
Q 557.237104 45.319542 555.237104 45.319542 
L 451.244916 45.319542 
Q 449.244916 45.319542 449.244916 47.319542 
L 449.244916 106.322667 
Q 449.244916 108.322667 451.244916 108.322667 
z
" style="fill: #ffffff; opacity: 0.8; stroke: #cccccc; stroke-linejoin: miter"/>
    </g>
    <g id="line2d_67">
     <path d="M 453.244916 53.41798 
L 463.244916 53.41798 
L 473.244916 53.41798 
" style="fill: none; stroke: #d62728; stroke-width: 1.5; stroke-linecap: square"/>
     <g>
      <use xlink:href="#mcfbe7f2bf1" x="463.244916" y="53.41798" style="fill: #d62728; stroke: #d62728"/>
     </g>
    </g>
    <g id="text_38">
     <!-- zero seq X0 -->
     <g transform="translate(481.244916 56.91798) scale(0.1 -0.1)">
      <use xlink:href="#DejaVuSans-5d"/>
      <use xlink:href="#DejaVuSans-48" transform="translate(52.484375 0)"/>
      <use xlink:href="#DejaVuSans-55" transform="translate(114.015625 0)"/>
      <use xlink:href="#DejaVuSans-52" transform="translate(152.921875 0)"/>
      <use xlink:href="#DejaVuSans-3" transform="translate(214.109375 0)"/>
      <use xlink:href="#DejaVuSans-56" transform="translate(245.890625 0)"/>
      <use xlink:href="#DejaVuSans-48" transform="translate(297.984375 0)"/>
      <use xlink:href="#DejaVuSans-54" transform="translate(359.515625 0)"/>
      <use xlink:href="#DejaVuSans-3" transform="translate(423 0)"/>
      <use xlink:href="#DejaVuSans-3b" transform="translate(454.78125 0)"/>
      <use xlink:href="#DejaVuSans-13" transform="translate(523.28125 0)"/>
     </g>
    </g>
    <g id="line2d_68">
     <path d="M 453.244916 68.418761 
L 463.244916 68.418761 
L 473.244916 68.418761 
" style="fill: none; stroke: #1f77b4; stroke-width: 1.5; stroke-linecap: square"/>
     <g>
      <use xlink:href="#m3d2da0b0a8" x="463.244916" y="68.418761" style="fill: #1f77b4; stroke: #1f77b4; stroke-linejoin: miter"/>
     </g>
    </g>
    <g id="text_39">
     <!-- pos seq X1 -->
     <g transform="translate(481.244916 71.918761) scale(0.1 -0.1)">
      <use xlink:href="#DejaVuSans-53"/>
      <use xlink:href="#DejaVuSans-52" transform="translate(63.484375 0)"/>
      <use xlink:href="#DejaVuSans-56" transform="translate(124.671875 0)"/>
      <use xlink:href="#DejaVuSans-3" transform="translate(176.765625 0)"/>
      <use xlink:href="#DejaVuSans-56" transform="translate(208.546875 0)"/>
      <use xlink:href="#DejaVuSans-48" transform="translate(260.640625 0)"/>
      <use xlink:href="#DejaVuSans-54" transform="translate(322.171875 0)"/>
      <use xlink:href="#DejaVuSans-3" transform="translate(385.65625 0)"/>
      <use xlink:href="#DejaVuSans-3b" transform="translate(417.4375 0)"/>
      <use xlink:href="#DejaVuSans-14" transform="translate(485.9375 0)"/>
     </g>
    </g>
    <g id="line2d_69">
     <path d="M 453.244916 83.419542 
L 463.244916 83.419542 
L 473.244916 83.419542 
" style="fill: none; stroke-dasharray: 5.55,2.4; stroke-dashoffset: 0; stroke: #2ca02c; stroke-width: 1.5"/>
     <g>
      <use xlink:href="#m504674d336" x="463.244916" y="83.419542" style="fill: #2ca02c; stroke: #2ca02c"/>
     </g>
    </g>
    <g id="text_40">
     <!-- X1 model (∝h) -->
     <g transform="translate(481.244916 86.919542) scale(0.1 -0.1)">
      <defs>
       <path id="DejaVuSans-ca7" d="M 1647 1134 
Q 2163 1134 2472 1884 
Q 2075 2703 1647 2703 
Q 1334 2703 1175 2478 
Q 1006 2238 1006 1919 
Q 1006 1569 1175 1353 
Q 1350 1134 1647 1134 
z
M 3884 1128 
L 3884 716 
L 3644 716 
Q 3416 716 3247 809 
Q 3078 894 2916 1091 
Q 2819 1203 2666 1466 
Q 2456 1091 2272 925 
Q 2044 725 1681 725 
Q 1259 725 981 1041 
Q 688 1372 688 1919 
Q 688 2444 981 2800 
Q 1241 3116 1688 3116 
Q 1916 3116 2084 3022 
Q 2281 2919 2416 2741 
Q 2541 2581 2666 2366 
Q 2875 2741 3059 2906 
Q 3288 3106 3650 3106 
L 3884 3106 
L 3884 2697 
L 3684 2697 
Q 3222 2697 2859 1947 
Q 3256 1128 3684 1128 
L 3884 1128 
z
" transform="scale(0.015625)"/>
      </defs>
      <use xlink:href="#DejaVuSans-3b"/>
      <use xlink:href="#DejaVuSans-14" transform="translate(68.5 0)"/>
      <use xlink:href="#DejaVuSans-3" transform="translate(132.125 0)"/>
      <use xlink:href="#DejaVuSans-50" transform="translate(163.90625 0)"/>
      <use xlink:href="#DejaVuSans-52" transform="translate(261.3125 0)"/>
      <use xlink:href="#DejaVuSans-47" transform="translate(322.5 0)"/>
      <use xlink:href="#DejaVuSans-48" transform="translate(385.984375 0)"/>
      <use xlink:href="#DejaVuSans-4f" transform="translate(447.515625 0)"/>
      <use xlink:href="#DejaVuSans-3" transform="translate(475.296875 0)"/>
      <use xlink:href="#DejaVuSans-b" transform="translate(507.078125 0)"/>
      <use xlink:href="#DejaVuSans-ca7" transform="translate(546.09375 0)"/>
      <use xlink:href="#DejaVuSans-4b" transform="translate(617.53125 0)"/>
      <use xlink:href="#DejaVuSans-c" transform="translate(680.90625 0)"/>
     </g>
    </g>
    <g id="line2d_70">
     <path d="M 453.244916 98.420324 
L 463.244916 98.420324 
L 473.244916 98.420324 
" style="fill: none; stroke-dasharray: 1.5,2.475; stroke-dashoffset: 0; stroke: #808080; stroke-width: 1.5"/>
    </g>
    <g id="text_41">
     <!-- X1·h (naive) -->
     <g transform="translate(481.244916 101.920324) scale(0.1 -0.1)">
      <defs>
       <path id="DejaVuSans-79" d="M 684 2619 
L 1344 2619 
L 1344 1825 
L 684 1825 
L 684 2619 
z
" transform="scale(0.015625)"/>
       <path id="DejaVuSans-59" d="M 191 3500 
L 800 3500 
L 1894 563 
L 2988 3500 
L 3597 3500 
L 2284 0 
L 1503 0 
L 191 3500 
z
" transform="scale(0.015625)"/>
      </defs>
      <use xlink:href="#DejaVuSans-3b"/>
      <use xlink:href="#DejaVuSans-14" transform="translate(68.5 0)"/>
      <use xlink:href="#DejaVuSans-79" transform="translate(132.125 0)"/>
      <use xlink:href="#DejaVuSans-4b" transform="translate(163.90625 0)"/>
      <use xlink:href="#DejaVuSans-3" transform="translate(227.28125 0)"/>
      <use xlink:href="#DejaVuSans-b" transform="translate(259.0625 0)"/>
      <use xlink:href="#DejaVuSans-51" transform="translate(298.078125 0)"/>
      <use xlink:href="#DejaVuSans-44" transform="translate(361.453125 0)"/>
      <use xlink:href="#DejaVuSans-4c" transform="translate(422.734375 0)"/>
      <use xlink:href="#DejaVuSans-59" transform="translate(450.515625 0)"/>
      <use xlink:href="#DejaVuSans-48" transform="translate(509.703125 0)"/>
      <use xlink:href="#DejaVuSans-c" transform="translate(571.234375 0)"/>
     </g>
    </g>
   </g>
  </g>
  <g id="text_42">
   <!-- 3-phase geometry: earth return only in the ZERO sequence (positive-seq X ∝ h, no floor) -->
   <g transform="translate(134.526323 16.318125) scale(0.12 -0.12)">
    <defs>
     <path id="DejaVuSans-16" d="M 2597 2516 
Q 3050 2419 3304 2112 
Q 3559 1806 3559 1356 
Q 3559 666 3084 287 
Q 2609 -91 1734 -91 
Q 1441 -91 1130 -33 
Q 819 25 488 141 
L 488 750 
Q 750 597 1062 519 
Q 1375 441 1716 441 
Q 2309 441 2620 675 
Q 2931 909 2931 1356 
Q 2931 1769 2642 2001 
Q 2353 2234 1838 2234 
L 1294 2234 
L 1294 2753 
L 1863 2753 
Q 2328 2753 2575 2939 
Q 2822 3125 2822 3475 
Q 2822 3834 2567 4026 
Q 2313 4219 1838 4219 
Q 1578 4219 1281 4162 
Q 984 4106 628 3988 
L 628 4550 
Q 988 4650 1302 4700 
Q 1616 4750 1894 4750 
Q 2613 4750 3031 4423 
Q 3450 4097 3450 3541 
Q 3450 3153 3228 2886 
Q 3006 2619 2597 2516 
z
" transform="scale(0.015625)"/>
     <path id="DejaVuSans-10" d="M 313 2009 
L 1997 2009 
L 1997 1497 
L 313 1497 
L 313 2009 
z
" transform="scale(0.015625)"/>
     <path id="DejaVuSans-4a" d="M 2906 1791 
Q 2906 2416 2648 2759 
Q 2391 3103 1925 3103 
Q 1463 3103 1205 2759 
Q 947 2416 947 1791 
Q 947 1169 1205 825 
Q 1463 481 1925 481 
Q 2391 481 2648 825 
Q 2906 1169 2906 1791 
z
M 3481 434 
Q 3481 -459 3084 -895 
Q 2688 -1331 1869 -1331 
Q 1566 -1331 1297 -1286 
Q 1028 -1241 775 -1147 
L 775 -588 
Q 1028 -725 1275 -790 
Q 1522 -856 1778 -856 
Q 2344 -856 2625 -561 
Q 2906 -266 2906 331 
L 2906 616 
Q 2728 306 2450 153 
Q 2172 0 1784 0 
Q 1141 0 747 490 
Q 353 981 353 1791 
Q 353 2603 747 3093 
Q 1141 3584 1784 3584 
Q 2172 3584 2450 3431 
Q 2728 3278 2906 2969 
L 2906 3500 
L 3481 3500 
L 3481 434 
z
" transform="scale(0.015625)"/>
     <path id="DejaVuSans-5c" d="M 2059 -325 
Q 1816 -950 1584 -1140 
Q 1353 -1331 966 -1331 
L 506 -1331 
L 506 -850 
L 844 -850 
Q 1081 -850 1212 -737 
Q 1344 -625 1503 -206 
L 1606 56 
L 191 3500 
L 800 3500 
L 1894 763 
L 2988 3500 
L 3597 3500 
L 2059 -325 
z
" transform="scale(0.015625)"/>
     <path id="DejaVuSans-1d" d="M 750 794 
L 1409 794 
L 1409 0 
L 750 0 
L 750 794 
z
M 750 3309 
L 1409 3309 
L 1409 2516 
L 750 2516 
L 750 3309 
z
" transform="scale(0.015625)"/>
     <path id="DejaVuSans-58" d="M 544 1381 
L 544 3500 
L 1119 3500 
L 1119 1403 
Q 1119 906 1312 657 
Q 1506 409 1894 409 
Q 2359 409 2629 706 
Q 2900 1003 2900 1516 
L 2900 3500 
L 3475 3500 
L 3475 0 
L 2900 0 
L 2900 538 
Q 2691 219 2414 64 
Q 2138 -91 1772 -91 
Q 1169 -91 856 284 
Q 544 659 544 1381 
z
M 1991 3584 
L 1991 3584 
z
" transform="scale(0.015625)"/>
     <path id="DejaVuSans-3d" d="M 359 4666 
L 4025 4666 
L 4025 4184 
L 1075 531 
L 4097 531 
L 4097 0 
L 288 0 
L 288 481 
L 3238 4134 
L 359 4134 
L 359 4666 
z
" transform="scale(0.015625)"/>
     <path id="DejaVuSans-28" d="M 628 4666 
L 3578 4666 
L 3578 4134 
L 1259 4134 
L 1259 2753 
L 3481 2753 
L 3481 2222 
L 1259 2222 
L 1259 531 
L 3634 531 
L 3634 0 
L 628 0 
L 628 4666 
z
" transform="scale(0.015625)"/>
     <path id="DejaVuSans-32" d="M 2522 4238 
Q 1834 4238 1429 3725 
Q 1025 3213 1025 2328 
Q 1025 1447 1429 934 
Q 1834 422 2522 422 
Q 3209 422 3611 934 
Q 4013 1447 4013 2328 
Q 4013 3213 3611 3725 
Q 3209 4238 2522 4238 
z
M 2522 4750 
Q 3503 4750 4090 4092 
Q 4678 3434 4678 2328 
Q 4678 1225 4090 567 
Q 3503 -91 2522 -91 
Q 1538 -91 948 565 
Q 359 1222 359 2328 
Q 359 3434 948 4092 
Q 1538 4750 2522 4750 
z
" transform="scale(0.015625)"/>
     <path id="DejaVuSans-f" d="M 750 794 
L 1409 794 
L 1409 256 
L 897 -744 
L 494 -744 
L 750 256 
L 750 794 
z
" transform="scale(0.015625)"/>
     <path id="DejaVuSans-13b0" d="M 1831 4863 
L 3431 4863 
L 3431 0 
L 2853 0 
L 2853 4384 
L 1825 4384 
Q 1516 4384 1395 4259 
Q 1275 4134 1275 3809 
L 1275 3500 
L 2222 3500 
L 2222 3053 
L 1275 3053 
L 1275 0 
L 697 0 
L 697 3053 
L 147 3053 
L 147 3500 
L 697 3500 
L 697 3744 
Q 697 4328 969 4595 
Q 1241 4863 1831 4863 
z
" transform="scale(0.015625)"/>
    </defs>
    <use xlink:href="#DejaVuSans-16"/>
    <use xlink:href="#DejaVuSans-10" transform="translate(63.625 0)"/>
    <use xlink:href="#DejaVuSans-53" transform="translate(99.703125 0)"/>
    <use xlink:href="#DejaVuSans-4b" transform="translate(163.1875 0)"/>
    <use xlink:href="#DejaVuSans-44" transform="translate(226.5625 0)"/>
    <use xlink:href="#DejaVuSans-56" transform="translate(287.84375 0)"/>
    <use xlink:href="#DejaVuSans-48" transform="translate(339.9375 0)"/>
    <use xlink:href="#DejaVuSans-3" transform="translate(401.46875 0)"/>
    <use xlink:href="#DejaVuSans-4a" transform="translate(433.25 0)"/>
    <use xlink:href="#DejaVuSans-48" transform="translate(496.734375 0)"/>
    <use xlink:href="#DejaVuSans-52" transform="translate(558.265625 0)"/>
    <use xlink:href="#DejaVuSans-50" transform="translate(619.453125 0)"/>
    <use xlink:href="#DejaVuSans-48" transform="translate(716.859375 0)"/>
    <use xlink:href="#DejaVuSans-57" transform="translate(778.390625 0)"/>
    <use xlink:href="#DejaVuSans-55" transform="translate(817.59375 0)"/>
    <use xlink:href="#DejaVuSans-5c" transform="translate(858.703125 0)"/>
    <use xlink:href="#DejaVuSans-1d" transform="translate(910.609375 0)"/>
    <use xlink:href="#DejaVuSans-3" transform="translate(944.296875 0)"/>
    <use xlink:href="#DejaVuSans-48" transform="translate(976.078125 0)"/>
    <use xlink:href="#DejaVuSans-44" transform="translate(1037.609375 0)"/>
    <use xlink:href="#DejaVuSans-55" transform="translate(1098.890625 0)"/>
    <use xlink:href="#DejaVuSans-57" transform="translate(1140 0)"/>
    <use xlink:href="#DejaVuSans-4b" transform="translate(1179.203125 0)"/>
    <use xlink:href="#DejaVuSans-3" transform="translate(1242.578125 0)"/>
    <use xlink:href="#DejaVuSans-55" transform="translate(1274.359375 0)"/>
    <use xlink:href="#DejaVuSans-48" transform="translate(1313.265625 0)"/>
    <use xlink:href="#DejaVuSans-57" transform="translate(1374.796875 0)"/>
    <use xlink:href="#DejaVuSans-58" transform="translate(1414 0)"/>
    <use xlink:href="#DejaVuSans-55" transform="translate(1477.375 0)"/>
    <use xlink:href="#DejaVuSans-51" transform="translate(1516.734375 0)"/>
    <use xlink:href="#DejaVuSans-3" transform="translate(1580.109375 0)"/>
    <use xlink:href="#DejaVuSans-52" transform="translate(1611.890625 0)"/>
    <use xlink:href="#DejaVuSans-51" transform="translate(1673.078125 0)"/>
    <use xlink:href="#DejaVuSans-4f" transform="translate(1736.453125 0)"/>
    <use xlink:href="#DejaVuSans-5c" transform="translate(1764.234375 0)"/>
    <use xlink:href="#DejaVuSans-3" transform="translate(1823.421875 0)"/>
    <use xlink:href="#DejaVuSans-4c" transform="translate(1855.203125 0)"/>
    <use xlink:href="#DejaVuSans-51" transform="translate(1882.984375 0)"/>
    <use xlink:href="#DejaVuSans-3" transform="translate(1946.359375 0)"/>
    <use xlink:href="#DejaVuSans-57" transform="translate(1978.140625 0)"/>
    <use xlink:href="#DejaVuSans-4b" transform="translate(2017.34375 0)"/>
    <use xlink:href="#DejaVuSans-48" transform="translate(2080.71875 0)"/>
    <use xlink:href="#DejaVuSans-3" transform="translate(2142.25 0)"/>
    <use xlink:href="#DejaVuSans-3d" transform="translate(2174.03125 0)"/>
    <use xlink:href="#DejaVuSans-28" transform="translate(2242.53125 0)"/>
    <use xlink:href="#DejaVuSans-35" transform="translate(2305.71875 0)"/>
    <use xlink:href="#DejaVuSans-32" transform="translate(2375.203125 0)"/>
    <use xlink:href="#DejaVuSans-3" transform="translate(2453.921875 0)"/>
    <use xlink:href="#DejaVuSans-56" transform="translate(2485.703125 0)"/>
    <use xlink:href="#DejaVuSans-48" transform="translate(2537.796875 0)"/>
    <use xlink:href="#DejaVuSans-54" transform="translate(2599.328125 0)"/>
    <use xlink:href="#DejaVuSans-58" transform="translate(2662.8125 0)"/>
    <use xlink:href="#DejaVuSans-48" transform="translate(2726.1875 0)"/>
    <use xlink:href="#DejaVuSans-51" transform="translate(2787.71875 0)"/>
    <use xlink:href="#DejaVuSans-46" transform="translate(2851.09375 0)"/>
    <use xlink:href="#DejaVuSans-48" transform="translate(2906.078125 0)"/>
    <use xlink:href="#DejaVuSans-3" transform="translate(2967.609375 0)"/>
    <use xlink:href="#DejaVuSans-b" transform="translate(2999.390625 0)"/>
    <use xlink:href="#DejaVuSans-53" transform="translate(3038.40625 0)"/>
    <use xlink:href="#DejaVuSans-52" transform="translate(3101.890625 0)"/>
    <use xlink:href="#DejaVuSans-56" transform="translate(3163.078125 0)"/>
    <use xlink:href="#DejaVuSans-4c" transform="translate(3215.171875 0)"/>
    <use xlink:href="#DejaVuSans-57" transform="translate(3242.953125 0)"/>
    <use xlink:href="#DejaVuSans-4c" transform="translate(3282.15625 0)"/>
    <use xlink:href="#DejaVuSans-59" transform="translate(3309.9375 0)"/>
    <use xlink:href="#DejaVuSans-48" transform="translate(3369.125 0)"/>
    <use xlink:href="#DejaVuSans-10" transform="translate(3430.65625 0)"/>
    <use xlink:href="#DejaVuSans-56" transform="translate(3466.734375 0)"/>
    <use xlink:href="#DejaVuSans-48" transform="translate(3518.828125 0)"/>
    <use xlink:href="#DejaVuSans-54" transform="translate(3580.359375 0)"/>
    <use xlink:href="#DejaVuSans-3" transform="translate(3643.84375 0)"/>
    <use xlink:href="#DejaVuSans-3b" transform="translate(3675.625 0)"/>
    <use xlink:href="#DejaVuSans-3" transform="translate(3744.125 0)"/>
    <use xlink:href="#DejaVuSans-ca7" transform="translate(3775.90625 0)"/>
    <use xlink:href="#DejaVuSans-3" transform="translate(3847.34375 0)"/>
    <use xlink:href="#DejaVuSans-4b" transform="translate(3879.125 0)"/>
    <use xlink:href="#DejaVuSans-f" transform="translate(3942.5 0)"/>
    <use xlink:href="#DejaVuSans-3" transform="translate(3974.28125 0)"/>
    <use xlink:href="#DejaVuSans-51" transform="translate(4006.0625 0)"/>
    <use xlink:href="#DejaVuSans-52" transform="translate(4069.4375 0)"/>
    <use xlink:href="#DejaVuSans-3" transform="translate(4130.625 0)"/>
    <use xlink:href="#DejaVuSans-13b0" transform="translate(4162.40625 0)"/>
    <use xlink:href="#DejaVuSans-52" transform="translate(4225.390625 0)"/>
    <use xlink:href="#DejaVuSans-52" transform="translate(4286.578125 0)"/>
    <use xlink:href="#DejaVuSans-55" transform="translate(4347.765625 0)"/>
    <use xlink:href="#DejaVuSans-c" transform="translate(4388.875 0)"/>
   </g>
  </g>
 </g>
 <defs>
  <clipPath id="p276adb44e7">
   <rect x="44.103906" y="40.319542" width="348.954604" height="246.679196"/>
  </clipPath>
  <clipPath id="p1414ec4d6f">
   <rect x="444.244916" y="40.319542" width="348.954604" height="246.679196"/>
  </clipPath>
 </defs>
</svg>
